<svg xmlns="http://www.w3.org/2000/svg" width="1760" height="980" viewBox="0 0 1760 980"><rect width="1760" height="980" fill="#e8edf3"/><g transform="translate(32,48)"><rect width="390" height="844" rx="42" fill="#111827"/><rect x="10" y="10" width="370" height="824" rx="32" fill="#f6f8fb"/><g transform="translate(10,10)"><rect width="370" height="34" fill="#f6f8fb"/><text x="18" y="22" font-size="13" fill="#111827" font-weight="700" font-family="Arial, 'Microsoft YaHei', sans-serif">9:41</text><text x="294" y="22" font-size="13" fill="#111827" font-weight="700" font-family="Arial, 'Microsoft YaHei', sans-serif">5G 100%</text><rect y="34" width="370" height="46" fill="#f6f8fb"/><text x="119" y="63" font-size="15" fill="#111827" font-weight="700" font-family="Arial, 'Microsoft YaHei', sans-serif">HKMU Campus</text><line x1="0" y1="80" x2="370" y2="80" stroke="rgba(15,23,42,.06)"/><g transform="translate(12,104)"><text x="0" y="0" font-size="24" fill="#111827" font-weight="800" font-family="Arial, 'Microsoft YaHei', sans-serif">校园助手</text><text x="0" y="24" font-size="13" fill="#6b7280" font-weight="400" font-family="Arial, 'Microsoft YaHei', sans-serif">查看校园动态、找回物品、管理个人资料。</text><rect x="292" y="-24" width="70" height="32" rx="16" fill="#0f766e" stroke="none"/><text x="316" y="-3" font-size="13" fill="#fff" font-weight="700" font-family="Arial, 'Microsoft YaHei', sans-serif">登录</text><rect x="0" y="46" width="172" height="72" rx="8" fill="#fff" stroke="none"/><rect x="0" y="46" width="172" height="72" rx="8" fill="none" stroke="rgba(15,23,42,.04)"/><text x="14" y="78" font-size="24" fill="#0f766e" font-weight="800" font-family="Arial, 'Microsoft YaHei', sans-serif">12</text><text x="14" y="103" font-size="13" fill="#6b7280" font-weight="400" font-family="Arial, 'Microsoft YaHei', sans-serif">校园新闻</text><rect x="188" y="46" width="172" height="72" rx="8" fill="#fff" stroke="none"/><rect x="188" y="46" width="172" height="72" rx="8" fill="none" stroke="rgba(15,23,42,.04)"/><text x="202" y="78" font-size="24" fill="#0f766e" font-weight="800" font-family="Arial, 'Microsoft YaHei', sans-serif">8</text><text x="202" y="103" font-size="13" fill="#6b7280" font-weight="400" font-family="Arial, 'Microsoft YaHei', sans-serif">活跃失物招领</text><text x="0" y="150" font-size="16" fill="#111827" font-weight="800" font-family="Arial, 'Microsoft YaHei', sans-serif">常用入口</text><rect x="0" y="166" width="172" height="70" rx="8" fill="#fff" stroke="none"/><rect x="0" y="166" width="172" height="70" rx="8" fill="none" stroke="rgba(15,23,42,.04)"/><text x="14" y="191" font-size="15" fill="#111827" font-weight="800" font-family="Arial, 'Microsoft YaHei', sans-serif">看新闻</text><text x="14" y="215" font-size="12" fill="#6b7280" font-weight="400" font-family="Arial, 'Microsoft YaHei', sans-serif">浏览最新校园通知和链接。</text><rect x="188" y="166" width="172" height="70" rx="8" fill="#fff" stroke="none"/><rect x="188" y="166" width="172" height="70" rx="8" fill="none" stroke="rgba(15,23,42,.04)"/><text x="202" y="191" font-size="15" fill="#111827" font-weight="800" font-family="Arial, 'Microsoft YaHei', sans-serif">找物品</text><text x="202" y="215" font-size="12" fill="#6b7280" font-weight="400" font-family="Arial, 'Microsoft YaHei', sans-serif">按失物、招领快速筛选。</text><rect x="0" y="252" width="172" height="70" rx="8" fill="#fff" stroke="none"/><rect x="0" y="252" width="172" height="70" rx="8" fill="none" stroke="rgba(15,23,42,.04)"/><text x="14" y="277" font-size="15" fill="#111827" font-weight="800" font-family="Arial, 'Microsoft YaHei', sans-serif">个人资料</text><text x="14" y="301" font-size="12" fill="#6b7280" font-weight="400" font-family="Arial, 'Microsoft YaHei', sans-serif">查看当前登录账号信息。</text><rect x="188" y="252" width="172" height="70" rx="8" fill="#fff" stroke="none"/><rect x="188" y="252" width="172" height="70" rx="8" fill="none" stroke="rgba(15,23,42,.04)"/><text x="202" y="277" font-size="15" fill="#111827" font-weight="800" font-family="Arial, 'Microsoft YaHei', sans-serif">登录状态</text><text x="202" y="301" font-size="12" fill="#6b7280" font-weight="400" font-family="Arial, 'Microsoft YaHei', sans-serif">查看当前账号是否在线。</text><text x="0" y="356" font-size="16" fill="#111827" font-weight="800" font-family="Arial, 'Microsoft YaHei', sans-serif">最新新闻</text><text x="314" y="356" font-size="13" fill="#0f766e" font-weight="700" font-family="Arial, 'Microsoft YaHei', sans-serif">查看全部</text><rect x="0" y="372" width="360" height="58" rx="8" fill="#fff" stroke="none"/><rect x="0" y="372" width="360" height="58" rx="8" fill="none" stroke="rgba(15,23,42,.04)"/><text x="14" y="398" font-size="15" fill="#111827" font-weight="800" font-family="Arial, 'Microsoft YaHei', sans-serif">HKMU 春季校园活动周启动</text><text x="14" y="418" font-size="12" fill="#6b7280" font-weight="400" font-family="Arial, 'Microsoft YaHei', sans-serif">校园 · 2026-05-27</text><rect x="0" y="438" width="360" height="58" rx="8" fill="#fff" stroke="none"/><rect x="0" y="438" width="360" height="58" rx="8" fill="none" stroke="rgba(15,23,42,.04)"/><text x="14" y="464" font-size="15" fill="#111827" font-weight="800" font-family="Arial, 'Microsoft YaHei', sans-serif">图书馆考试周延长开放时间</text><text x="14" y="484" font-size="12" fill="#6b7280" font-weight="400" font-family="Arial, 'Microsoft YaHei', sans-serif">服务 · 2026-05-26</text><text x="0" y="528" font-size="16" fill="#111827" font-weight="800" font-family="Arial, 'Microsoft YaHei', sans-serif">活跃失物招领</text><text x="314" y="528" font-size="13" fill="#0f766e" font-weight="700" font-family="Arial, 'Microsoft YaHei', sans-serif">查看全部</text><rect x="0" y="544" width="360" height="58" rx="8" fill="#fff" stroke="none"/><rect x="0" y="544" width="360" height="58" rx="8" fill="none" stroke="rgba(15,23,42,.04)"/><text x="14" y="570" font-size="15" fill="#111827" font-weight="800" font-family="Arial, 'Microsoft YaHei', sans-serif">黑色保温杯</text><text x="14" y="590" font-size="12" fill="#6b7280" font-weight="400" font-family="Arial, 'Microsoft YaHei', sans-serif">失物 · A座自习区</text></g><rect x="0" y="780" width="390" height="64" rx="0" fill="#fff" stroke="none"/><circle cx="48" cy="802" r="9" fill="#0f766e" opacity=".9"/><text x="36" y="826" font-size="12" fill="#0f766e" font-weight="700" font-family="Arial, 'Microsoft YaHei', sans-serif">首页</text><circle cx="145" cy="802" r="9" fill="#6f7b8a" opacity=".9"/><text x="133" y="826" font-size="12" fill="#6f7b8a" font-weight="400" font-family="Arial, 'Microsoft YaHei', sans-serif">新闻</text><circle cx="242" cy="802" r="9" fill="#6f7b8a" opacity=".9"/><text x="230" y="826" font-size="12" fill="#6f7b8a" font-weight="400" font-family="Arial, 'Microsoft YaHei', sans-serif">失物</text><circle cx="339" cy="802" r="9" fill="#6f7b8a" opacity=".9"/><text x="327" y="826" font-size="12" fill="#6f7b8a" font-weight="400" font-family="Arial, 'Microsoft YaHei', sans-serif">我的</text></g></g><g transform="translate(464,48)"><rect width="390" height="844" rx="42" fill="#111827"/><rect x="10" y="10" width="370" height="824" rx="32" fill="#f6f8fb"/><g transform="translate(10,10)"><rect width="370" height="34" fill="#f6f8fb"/><text x="18" y="22" font-size="13" fill="#111827" font-weight="700" font-family="Arial, 'Microsoft YaHei', sans-serif">9:41</text><text x="294" y="22" font-size="13" fill="#111827" font-weight="700" font-family="Arial, 'Microsoft YaHei', sans-serif">5G 100%</text><rect y="34" width="370" height="46" fill="#f6f8fb"/><text x="161" y="63" font-size="15" fill="#111827" font-weight="700" font-family="Arial, 'Microsoft YaHei', sans-serif">校园新闻</text><line x1="0" y1="80" x2="370" y2="80" stroke="rgba(15,23,42,.06)"/><g transform="translate(12,104)"><text x="0" y="0" font-size="24" fill="#111827" font-weight="800" font-family="Arial, 'Microsoft YaHei', sans-serif">校园新闻</text><text x="0" y="24" font-size="13" fill="#6b7280" font-weight="400" font-family="Arial, 'Microsoft YaHei', sans-serif">最近校园动态，适合快速扫读。</text><rect x="0" y="48" width="360" height="38" rx="19" fill="#fff" stroke="none"/><text x="16" y="73" font-size="13" fill="#9ca3af" font-weight="400" font-family="Arial, 'Microsoft YaHei', sans-serif">⌕  搜索标题、摘要或分类</text><rect x="0" y="104" width="360" height="126" rx="8" fill="#fff" stroke="none"/><rect x="0" y="104" width="360" height="126" rx="8" fill="none" stroke="rgba(15,23,42,.04)"/><rect x="14" y="116" width="50" height="24" rx="12" fill="#def7ec" stroke="none"/><text x="25" y="132" font-size="12" fill="#0b7a58" font-weight="700" font-family="Arial, 'Microsoft YaHei', sans-serif">校园</text><rect x="80" y="116" width="162" height="24" rx="12" fill="#eef3f8" stroke="none"/><text x="91" y="132" font-size="12" fill="#475569" font-weight="700" font-family="Arial, 'Microsoft YaHei', sans-serif">2026-05-27</text><text x="14" y="164" font-size="16" fill="#111827" font-weight="800" font-family="Arial, 'Microsoft YaHei', sans-serif">HKMU 春季校园活动周启动</text><text x="14" y="190" font-size="12" fill="#4b5563" font-weight="400" font-family="Arial, 'Microsoft YaHei', sans-serif">学生事务处公布本周活动安排，包含社团招新、讲座和校园导览。</text><rect x="14" y="202" width="74" height="30" rx="15" fill="#eef3f8" stroke="none"/><text x="29" y="222" font-size="12" fill="#1f2937" font-weight="700" font-family="Arial, 'Microsoft YaHei', sans-serif">复制链接</text><rect x="0" y="246" width="360" height="126" rx="8" fill="#fff" stroke="none"/><rect x="0" y="246" width="360" height="126" rx="8" fill="none" stroke="rgba(15,23,42,.04)"/><rect x="14" y="258" width="50" height="24" rx="12" fill="#def7ec" stroke="none"/><text x="25" y="274" font-size="12" fill="#0b7a58" font-weight="700" font-family="Arial, 'Microsoft YaHei', sans-serif">学术</text><rect x="80" y="258" width="162" height="24" rx="12" fill="#eef3f8" stroke="none"/><text x="91" y="274" font-size="12" fill="#475569" font-weight="700" font-family="Arial, 'Microsoft YaHei', sans-serif">2026-05-27</text><text x="14" y="306" font-size="16" fill="#111827" font-weight="800" font-family="Arial, 'Microsoft YaHei', sans-serif">DSAI 课程讲座报名开放</text><text x="14" y="332" font-size="12" fill="#4b5563" font-weight="400" font-family="Arial, 'Microsoft YaHei', sans-serif">数据科学与人工智能课程组将举办选课说明会。</text><rect x="14" y="344" width="74" height="30" rx="15" fill="#eef3f8" stroke="none"/><text x="29" y="364" font-size="12" fill="#1f2937" font-weight="700" font-family="Arial, 'Microsoft YaHei', sans-serif">复制链接</text><rect x="0" y="388" width="360" height="126" rx="8" fill="#fff" stroke="none"/><rect x="0" y="388" width="360" height="126" rx="8" fill="none" stroke="rgba(15,23,42,.04)"/><rect x="14" y="400" width="50" height="24" rx="12" fill="#def7ec" stroke="none"/><text x="25" y="416" font-size="12" fill="#0b7a58" font-weight="700" font-family="Arial, 'Microsoft YaHei', sans-serif">服务</text><rect x="80" y="400" width="162" height="24" rx="12" fill="#eef3f8" stroke="none"/><text x="91" y="416" font-size="12" fill="#475569" font-weight="700" font-family="Arial, 'Microsoft YaHei', sans-serif">2026-05-27</text><text x="14" y="448" font-size="16" fill="#111827" font-weight="800" font-family="Arial, 'Microsoft YaHei', sans-serif">图书馆考试周延长开放时间</text><text x="14" y="474" font-size="12" fill="#4b5563" font-weight="400" font-family="Arial, 'Microsoft YaHei', sans-serif">主要学习空间将在考试周延长至晚间开放。</text><rect x="14" y="486" width="74" height="30" rx="15" fill="#eef3f8" stroke="none"/><text x="29" y="506" font-size="12" fill="#1f2937" font-weight="700" font-family="Arial, 'Microsoft YaHei', sans-serif">复制链接</text></g><rect x="0" y="780" width="390" height="64" rx="0" fill="#fff" stroke="none"/><circle cx="48" cy="802" r="9" fill="#6f7b8a" opacity=".9"/><text x="36" y="826" font-size="12" fill="#6f7b8a" font-weight="400" font-family="Arial, 'Microsoft YaHei', sans-serif">首页</text><circle cx="145" cy="802" r="9" fill="#0f766e" opacity=".9"/><text x="133" y="826" font-size="12" fill="#0f766e" font-weight="700" font-family="Arial, 'Microsoft YaHei', sans-serif">新闻</text><circle cx="242" cy="802" r="9" fill="#6f7b8a" opacity=".9"/><text x="230" y="826" font-size="12" fill="#6f7b8a" font-weight="400" font-family="Arial, 'Microsoft YaHei', sans-serif">失物</text><circle cx="339" cy="802" r="9" fill="#6f7b8a" opacity=".9"/><text x="327" y="826" font-size="12" fill="#6f7b8a" font-weight="400" font-family="Arial, 'Microsoft YaHei', sans-serif">我的</text></g></g><g transform="translate(896,48)"><rect width="390" height="844" rx="42" fill="#111827"/><rect x="10" y="10" width="370" height="824" rx="32" fill="#f6f8fb"/><g transform="translate(10,10)"><rect width="370" height="34" fill="#f6f8fb"/><text x="18" y="22" font-size="13" fill="#111827" font-weight="700" font-family="Arial, 'Microsoft YaHei', sans-serif">9:41</text><text x="294" y="22" font-size="13" fill="#111827" font-weight="700" font-family="Arial, 'Microsoft YaHei', sans-serif">5G 100%</text><rect y="34" width="370" height="46" fill="#f6f8fb"/><text x="161" y="63" font-size="15" fill="#111827" font-weight="700" font-family="Arial, 'Microsoft YaHei', sans-serif">失物招领</text><line x1="0" y1="80" x2="370" y2="80" stroke="rgba(15,23,42,.06)"/><g transform="translate(12,104)"><text x="0" y="0" font-size="24" fill="#111827" font-weight="800" font-family="Arial, 'Microsoft YaHei', sans-serif">失物招领</text><text x="0" y="24" font-size="13" fill="#6b7280" font-weight="400" font-family="Arial, 'Microsoft YaHei', sans-serif">快速查看正在寻找和招领的物品。</text><rect x="0" y="48" width="360" height="38" rx="19" fill="#fff" stroke="none"/><text x="16" y="73" font-size="13" fill="#9ca3af" font-weight="400" font-family="Arial, 'Microsoft YaHei', sans-serif">⌕  搜索物品、地点、发布者</text><rect x="0" y="102" width="360" height="38" rx="7" fill="#e9eef5" stroke="none"/><rect x="4" y="105" width="116" height="32" rx="6" fill="#fff" stroke="none"/><text x="45" y="126" font-size="13" fill="#0f766e" font-weight="800" font-family="Arial, 'Microsoft YaHei', sans-serif">全部</text><text x="167" y="126" font-size="13" fill="#64748b" font-weight="400" font-family="Arial, 'Microsoft YaHei', sans-serif">失物</text><text x="286" y="126" font-size="13" fill="#64748b" font-weight="400" font-family="Arial, 'Microsoft YaHei', sans-serif">招领</text><rect x="0" y="150" width="360" height="38" rx="7" fill="#e9eef5" stroke="none"/><rect x="4" y="153" width="116" height="32" rx="6" fill="#fff" stroke="none"/><text x="39" y="174" font-size="13" fill="#0f766e" font-weight="800" font-family="Arial, 'Microsoft YaHei', sans-serif">进行中</text><text x="160" y="174" font-size="13" fill="#64748b" font-weight="400" font-family="Arial, 'Microsoft YaHei', sans-serif">已解决</text><text x="274" y="174" font-size="13" fill="#64748b" font-weight="400" font-family="Arial, 'Microsoft YaHei', sans-serif">全部状态</text><rect x="0" y="206" width="360" height="126" rx="8" fill="#fff" stroke="none"/><rect x="0" y="206" width="360" height="126" rx="8" fill="none" stroke="rgba(15,23,42,.04)"/><rect x="14" y="218" width="50" height="24" rx="12" fill="#ffe4e6" stroke="none"/><text x="25" y="234" font-size="12" fill="#be123c" font-weight="700" font-family="Arial, 'Microsoft YaHei', sans-serif">失物</text><rect x="72" y="218" width="64" height="24" rx="12" fill="#def7ec" stroke="none"/><text x="83" y="234" font-size="12" fill="#0b7a58" font-weight="700" font-family="Arial, 'Microsoft YaHei', sans-serif">进行中</text><rect x="142" y="218" width="162" height="24" rx="12" fill="#eef3f8" stroke="none"/><text x="153" y="234" font-size="12" fill="#475569" font-weight="700" font-family="Arial, 'Microsoft YaHei', sans-serif">2026-05-27</text><text x="14" y="266" font-size="16" fill="#111827" font-weight="800" font-family="Arial, 'Microsoft YaHei', sans-serif">黑色保温杯</text><text x="14" y="292" font-size="12" fill="#4b5563" font-weight="400" font-family="Arial, 'Microsoft YaHei', sans-serif">杯身有 HKMU 贴纸，可能遗失在 A 座自习区。</text><text x="14" y="318" font-size="12" fill="#6b7280" font-weight="400" font-family="Arial, 'Microsoft YaHei', sans-serif">生活用品 · A座自习区 · Alex</text><rect x="0" y="350" width="360" height="126" rx="8" fill="#fff" stroke="none"/><rect x="0" y="350" width="360" height="126" rx="8" fill="none" stroke="rgba(15,23,42,.04)"/><rect x="14" y="362" width="50" height="24" rx="12" fill="#fff3d6" stroke="none"/><text x="25" y="378" font-size="12" fill="#9a5a00" font-weight="700" font-family="Arial, 'Microsoft YaHei', sans-serif">招领</text><rect x="72" y="362" width="64" height="24" rx="12" fill="#def7ec" stroke="none"/><text x="83" y="378" font-size="12" fill="#0b7a58" font-weight="700" font-family="Arial, 'Microsoft YaHei', sans-serif">进行中</text><rect x="142" y="362" width="162" height="24" rx="12" fill="#eef3f8" stroke="none"/><text x="153" y="378" font-size="12" fill="#475569" font-weight="700" font-family="Arial, 'Microsoft YaHei', sans-serif">2026-05-27</text><text x="14" y="410" font-size="16" fill="#111827" font-weight="800" font-family="Arial, 'Microsoft YaHei', sans-serif">学生证</text><text x="14" y="436" font-size="12" fill="#4b5563" font-weight="400" font-family="Arial, 'Microsoft YaHei', sans-serif">在餐厅门口拾获，已交到服务台。</text><text x="14" y="462" font-size="12" fill="#6b7280" font-weight="400" font-family="Arial, 'Microsoft YaHei', sans-serif">证件 · 餐厅 · May</text></g><rect x="0" y="780" width="390" height="64" rx="0" fill="#fff" stroke="none"/><circle cx="48" cy="802" r="9" fill="#6f7b8a" opacity=".9"/><text x="36" y="826" font-size="12" fill="#6f7b8a" font-weight="400" font-family="Arial, 'Microsoft YaHei', sans-serif">首页</text><circle cx="145" cy="802" r="9" fill="#6f7b8a" opacity=".9"/><text x="133" y="826" font-size="12" fill="#6f7b8a" font-weight="400" font-family="Arial, 'Microsoft YaHei', sans-serif">新闻</text><circle cx="242" cy="802" r="9" fill="#0f766e" opacity=".9"/><text x="230" y="826" font-size="12" fill="#0f766e" font-weight="700" font-family="Arial, 'Microsoft YaHei', sans-serif">失物</text><circle cx="339" cy="802" r="9" fill="#6f7b8a" opacity=".9"/><text x="327" y="826" font-size="12" fill="#6f7b8a" font-weight="400" font-family="Arial, 'Microsoft YaHei', sans-serif">我的</text></g></g><g transform="translate(1328,48)"><rect width="390" height="844" rx="42" fill="#111827"/><rect x="10" y="10" width="370" height="824" rx="32" fill="#f6f8fb"/><g transform="translate(10,10)"><rect width="370" height="34" fill="#f6f8fb"/><text x="18" y="22" font-size="13" fill="#111827" font-weight="700" font-family="Arial, 'Microsoft YaHei', sans-serif">9:41</text><text x="294" y="22" font-size="13" fill="#111827" font-weight="700" font-family="Arial, 'Microsoft YaHei', sans-serif">5G 100%</text><rect y="34" width="370" height="46" fill="#f6f8fb"/><text x="173" y="63" font-size="15" fill="#111827" font-weight="700" font-family="Arial, 'Microsoft YaHei', sans-serif">我的</text><line x1="0" y1="80" x2="370" y2="80" stroke="rgba(15,23,42,.06)"/><g transform="translate(12,104)"><text x="0" y="0" font-size="24" fill="#111827" font-weight="800" font-family="Arial, 'Microsoft YaHei', sans-serif">我的</text><text x="0" y="24" font-size="13" fill="#6b7280" font-weight="400" font-family="Arial, 'Microsoft YaHei', sans-serif">查看你的校园账号资料。</text><rect x="0" y="52" width="360" height="300" rx="8" fill="#fff" stroke="none"/><rect x="0" y="52" width="360" height="300" rx="8" fill="none" stroke="rgba(15,23,42,.04)"/><circle cx="42" cy="96" r="28" fill="#0f766e"/><text x="35" y="104" font-size="22" fill="#fff" font-weight="800" font-family="Arial, 'Microsoft YaHei', sans-serif">L</text><text x="84" y="88" font-size="18" fill="#111827" font-weight="800" font-family="Arial, 'Microsoft YaHei', sans-serif">LY</text><text x="84" y="112" font-size="12" fill="#64748b" font-weight="400" font-family="Arial, 'Microsoft YaHei', sans-serif">@wx_8fa21b33</text><text x="84" y="132" font-size="12" fill="#64748b" font-weight="400" font-family="Arial, 'Microsoft YaHei', sans-serif">student · 2026-05-27</text><line x1="14" y1="146" x2="346" y2="146" stroke="#edf2f7"/><text x="14" y="164" font-size="13" fill="#64748b" font-weight="400" font-family="Arial, 'Microsoft YaHei', sans-serif">邮箱</text><text x="238" y="164" font-size="13" fill="#111827" font-weight="400" font-family="Arial, 'Microsoft YaHei', sans-serif">未填写</text><line x1="14" y1="188" x2="346" y2="188" stroke="#edf2f7"/><text x="14" y="206" font-size="13" fill="#64748b" font-weight="400" font-family="Arial, 'Microsoft YaHei', sans-serif">学号</text><text x="238" y="206" font-size="13" fill="#111827" font-weight="400" font-family="Arial, 'Microsoft YaHei', sans-serif">未填写</text><line x1="14" y1="230" x2="346" y2="230" stroke="#edf2f7"/><text x="14" y="248" font-size="13" fill="#64748b" font-weight="400" font-family="Arial, 'Microsoft YaHei', sans-serif">简介</text><text x="238" y="248" font-size="13" fill="#111827" font-weight="400" font-family="Arial, 'Microsoft YaHei', sans-serif">这个账号还没有填写个人简介。</text><line x1="14" y1="272" x2="346" y2="272" stroke="#edf2f7"/><text x="14" y="290" font-size="13" fill="#64748b" font-weight="400" font-family="Arial, 'Microsoft YaHei', sans-serif">登录方式</text><text x="238" y="290" font-size="13" fill="#111827" font-weight="400" font-family="Arial, 'Microsoft YaHei', sans-serif">wechat_miniprogram</text><rect x="14" y="316" width="64" height="32" rx="16" fill="#eef3f8" stroke="none"/><text x="34" y="337" font-size="13" fill="#1f2937" font-weight="700" font-family="Arial, 'Microsoft YaHei', sans-serif">刷新</text><rect x="94" y="316" width="88" height="32" rx="16" fill="#fff1f2" stroke="none"/><text x="113" y="337" font-size="13" fill="#be123c" font-weight="700" font-family="Arial, 'Microsoft YaHei', sans-serif">退出登录</text><rect x="0" y="372" width="360" height="94" rx="8" fill="#fff" stroke="none"/><rect x="0" y="372" width="360" height="94" rx="8" fill="none" stroke="rgba(15,23,42,.04)"/><rect x="14" y="388" width="332" height="42" rx="7" fill="#07c160" stroke="none"/><text x="143" y="415" font-size="14" fill="#fff" font-weight="800" font-family="Arial, 'Microsoft YaHei', sans-serif">使用微信登录</text><text x="14" y="452" font-size="12" fill="#64748b" font-weight="400" font-family="Arial, 'Microsoft YaHei', sans-serif">未登录时会进入登录页，也可用用户名或邮箱登录。</text></g><rect x="0" y="780" width="390" height="64" rx="0" fill="#fff" stroke="none"/><circle cx="48" cy="802" r="9" fill="#6f7b8a" opacity=".9"/><text x="36" y="826" font-size="12" fill="#6f7b8a" font-weight="400" font-family="Arial, 'Microsoft YaHei', sans-serif">首页</text><circle cx="145" cy="802" r="9" fill="#6f7b8a" opacity=".9"/><text x="133" y="826" font-size="12" fill="#6f7b8a" font-weight="400" font-family="Arial, 'Microsoft YaHei', sans-serif">新闻</text><circle cx="242" cy="802" r="9" fill="#6f7b8a" opacity=".9"/><text x="230" y="826" font-size="12" fill="#6f7b8a" font-weight="400" font-family="Arial, 'Microsoft YaHei', sans-serif">失物</text><circle cx="339" cy="802" r="9" fill="#0f766e" opacity=".9"/><text x="327" y="826" font-size="12" fill="#0f766e" font-weight="700" font-family="Arial, 'Microsoft YaHei', sans-serif">我的</text></g></g><text x="190" y="942" font-size="20" fill="#1f2937" font-weight="800" font-family="Arial, 'Microsoft YaHei', sans-serif">首页</text><text x="622" y="942" font-size="20" fill="#1f2937" font-weight="800" font-family="Arial, 'Microsoft YaHei', sans-serif">新闻</text><text x="1034" y="942" font-size="20" fill="#1f2937" font-weight="800" font-family="Arial, 'Microsoft YaHei', sans-serif">失物招领</text><text x="1470" y="942" font-size="20" fill="#1f2937" font-weight="800" font-family="Arial, 'Microsoft YaHei', sans-serif">我的 / 登录</text></svg>