<svg xmlns="http://www.w3.org/2000/svg" width="1280" height="760" viewBox="0 0 1280 760">
  <defs>
    <linearGradient id="cover" x1="0" x2="1" y1="0" y2="1">
      <stop offset="0" stop-color="#1d2d23"/>
      <stop offset="0.58" stop-color="#415c2a"/>
      <stop offset="1" stop-color="#e45f2b"/>
    </linearGradient>
    <filter id="shadow" x="-20%" y="-20%" width="140%" height="140%">
      <feDropShadow dx="0" dy="18" stdDeviation="18" flood-color="#111813" flood-opacity="0.18"/>
    </filter>
  </defs>
  <rect width="1280" height="760" fill="#efe9db"/>
  <circle cx="113" cy="104" r="86" fill="#f1bd78" opacity="0.55"/>
  <circle cx="1164" cy="636" r="126" fill="#e45f2b" opacity="0.16"/>
  <text x="68" y="76" fill="#111813" font-family="Arial, sans-serif" font-size="34" font-weight="800">HKMU Campus 小程序 UI 重设计</text>
  <text x="68" y="112" fill="#687066" font-family="Arial, sans-serif" font-size="18">动态流优先 / 手机端信息密度 / 发布入口 / 发现与互助统一视觉</text>

  <g transform="translate(80 160)" filter="url(#shadow)">
    <rect width="330" height="540" rx="38" fill="#111813"/>
    <rect x="12" y="12" width="306" height="516" rx="30" fill="#f4f2ec"/>
    <text x="32" y="56" fill="#677066" font-family="Arial, sans-serif" font-size="12" font-weight="700">HKMU CAMPUS</text>
    <text x="32" y="92" fill="#111813" font-family="Arial, sans-serif" font-size="32" font-weight="900">动态</text>
    <circle cx="278" cy="66" r="22" fill="#111813"/>
    <text x="270" y="73" fill="#fffaf0" font-family="Arial, sans-serif" font-size="18" font-weight="800">H</text>
    <rect x="32" y="120" width="266" height="70" rx="22" fill="#fffaf0" stroke="#e2ddd2" stroke-width="1"/>
    <circle cx="66" cy="155" r="18" fill="#111813"/>
    <rect x="92" y="138" width="138" height="34" rx="17" fill="#f1ecdf"/>
    <text x="106" y="160" fill="#747061" font-family="Arial, sans-serif" font-size="14">分享校园新鲜事...</text>
    <rect x="238" y="138" width="44" height="34" rx="17" fill="#e45f2b"/>
    <text x="249" y="160" fill="#fffaf0" font-family="Arial, sans-serif" font-size="13" font-weight="800">发布</text>
    <rect x="32" y="204" width="266" height="42" rx="21" fill="#e9e4d8"/>
    <text x="52" y="230" fill="#7a766c" font-family="Arial, sans-serif" font-size="15" font-weight="800"># 搜索动态、课程、活动</text>
    <rect x="32" y="258" width="266" height="46" rx="23" fill="#e9e4d8"/>
    <rect x="38" y="264" width="124" height="34" rx="17" fill="#111813"/>
    <text x="85" y="286" fill="#fffaf0" font-family="Arial, sans-serif" font-size="14" font-weight="800">最新</text>
    <text x="220" y="286" fill="#676d64" font-family="Arial, sans-serif" font-size="14" font-weight="800">热门</text>
    <rect x="12" y="320" width="306" height="1" fill="#e6e0d5"/>
    <circle cx="56" cy="358" r="20" fill="#111813"/>
    <text x="49" y="365" fill="#fffaf0" font-family="Arial, sans-serif" font-size="17" font-weight="800">陈</text>
    <text x="88" y="350" fill="#111813" font-family="Arial, sans-serif" font-size="16" font-weight="900">陈同学</text>
    <text x="88" y="370" fill="#77766e" font-family="Arial, sans-serif" font-size="12">@campus12 · 今天</text>
    <rect x="236" y="338" width="48" height="22" rx="11" fill="#ecf5d8"/>
    <text x="250" y="354" fill="#45611c" font-family="Arial, sans-serif" font-size="11" font-weight="800">课程</text>
    <text x="88" y="404" fill="#111813" font-family="Arial, sans-serif" font-size="18" font-weight="900">有人一起复习 FIN B280 吗？</text>
    <text x="88" y="431" fill="#283029" font-family="Arial, sans-serif" font-size="14">今晚图书馆三楼，想组一个小组...</text>
    <rect x="88" y="456" width="58" height="30" rx="15" fill="#ffe3d4"/>
    <text x="107" y="476" fill="#c14b1d" font-family="Arial, sans-serif" font-size="12" font-weight="800">8 赞</text>
    <rect x="154" y="456" width="72" height="30" rx="15" fill="#f1ecdf"/>
    <text x="174" y="476" fill="#687066" font-family="Arial, sans-serif" font-size="12" font-weight="800">3 评论</text>
    <rect x="234" y="456" width="60" height="30" rx="15" fill="#f1ecdf"/>
    <text x="250" y="476" fill="#687066" font-family="Arial, sans-serif" font-size="12" font-weight="800">转发</text>
  </g>

  <g transform="translate(475 160)" filter="url(#shadow)">
    <rect width="330" height="540" rx="38" fill="#111813"/>
    <rect x="12" y="12" width="306" height="516" rx="30" fill="#f4f2ec"/>
    <text x="32" y="56" fill="#677066" font-family="Arial, sans-serif" font-size="12" font-weight="700">DISCOVER</text>
    <text x="32" y="92" fill="#111813" font-family="Arial, sans-serif" font-size="32" font-weight="900">发现</text>
    <text x="32" y="120" fill="#687066" font-family="Arial, sans-serif" font-size="13">适合手机扫读的信息流</text>
    <rect x="32" y="148" width="266" height="42" rx="21" fill="#e9e4d8"/>
    <text x="52" y="174" fill="#7a766c" font-family="Arial, sans-serif" font-size="15" font-weight="800"># 搜索标题、摘要或分类</text>
    <rect x="32" y="214" width="266" height="170" rx="26" fill="#1b2b21"/>
    <text x="54" y="244" fill="#f1bd78" font-family="Arial, sans-serif" font-size="13" font-weight="800">校园 · 今天</text>
    <text x="54" y="284" fill="#fffaf0" font-family="Arial, sans-serif" font-size="24" font-weight="900">最新校园新闻置顶阅读</text>
    <text x="54" y="318" fill="#e9e5dc" font-family="Arial, sans-serif" font-size="14">用更像资讯 App 的大卡片承载重点内容。</text>
    <text x="54" y="356" fill="#f1bd78" font-family="Arial, sans-serif" font-size="13" font-weight="800">复制链接</text>
    <text x="32" y="426" fill="#111813" font-family="Arial, sans-serif" font-size="20" font-weight="900">继续阅读</text>
    <rect x="32" y="450" width="266" height="72" rx="20" fill="#fffaf0" stroke="#e2ddd2"/>
    <rect x="52" y="468" width="42" height="20" rx="10" fill="#e8f5d0"/>
    <text x="64" y="482" fill="#42600f" font-family="Arial, sans-serif" font-size="10" font-weight="800">通知</text>
    <text x="52" y="508" fill="#111813" font-family="Arial, sans-serif" font-size="15" font-weight="900">讲座、公告、活动集中浏览</text>
  </g>

  <g transform="translate(870 160)" filter="url(#shadow)">
    <rect width="330" height="540" rx="38" fill="#111813"/>
    <rect x="12" y="12" width="306" height="516" rx="30" fill="#f4f2ec"/>
    <rect x="12" y="12" width="306" height="132" rx="30" fill="url(#cover)"/>
    <circle cx="74" cy="142" r="36" fill="#111813" stroke="#fffaf0" stroke-width="6"/>
    <text x="61" y="154" fill="#fffaf0" font-family="Arial, sans-serif" font-size="26" font-weight="900">H</text>
    <text x="34" y="210" fill="#111813" font-family="Arial, sans-serif" font-size="28" font-weight="900">HKMU 同学</text>
    <text x="34" y="236" fill="#687066" font-family="Arial, sans-serif" font-size="14">@testuser · student</text>
    <text x="34" y="266" fill="#333b34" font-family="Arial, sans-serif" font-size="14">这个账号还没有填写个人简介。</text>
    <rect x="34" y="296" width="124" height="66" rx="20" fill="#fffaf0"/>
    <text x="52" y="324" fill="#111813" font-family="Arial, sans-serif" font-size="17" font-weight="900">今天</text>
    <text x="52" y="346" fill="#727268" font-family="Arial, sans-serif" font-size="12">加入时间</text>
    <rect x="172" y="296" width="124" height="66" rx="20" fill="#fffaf0"/>
    <text x="190" y="324" fill="#111813" font-family="Arial, sans-serif" font-size="17" font-weight="900">微信</text>
    <text x="190" y="346" fill="#727268" font-family="Arial, sans-serif" font-size="12">登录方式</text>
    <rect x="34" y="384" width="124" height="44" rx="22" fill="#111813"/>
    <text x="75" y="412" fill="#fffaf0" font-family="Arial, sans-serif" font-size="15" font-weight="900">发动态</text>
    <rect x="172" y="384" width="124" height="44" rx="22" fill="#e9e4d8"/>
    <text x="207" y="412" fill="#111813" font-family="Arial, sans-serif" font-size="15" font-weight="900">刷新资料</text>
    <rect x="34" y="452" width="262" height="58" rx="18" fill="#fffaf0"/>
    <text x="54" y="487" fill="#687066" font-family="Arial, sans-serif" font-size="14">邮箱</text>
    <text x="222" y="487" fill="#111813" font-family="Arial, sans-serif" font-size="14">未填写</text>
  </g>
</svg>
